<?xml version="1.0" encoding="UTF-8" standalone="no"?>
<!DOCTYPE svg PUBLIC "-//W3C//DTD SVG 1.1//EN"
 "http://www.w3.org/Graphics/SVG/1.1/DTD/svg11.dtd">
<!-- Generated by graphviz version 2.40.1 (20161225.0304)
 -->
<!-- Title: G Pages: 1 -->
<svg width="690pt" height="358pt"
 viewBox="0.00 0.00 689.73 357.71" xmlns="http://www.w3.org/2000/svg" xmlns:xlink="http://www.w3.org/1999/xlink">
<g id="graph0" class="graph" transform="scale(1 1) rotate(0) translate(4 353.7056)">
<title>G</title><style>.edge>path:hover{stroke-width:8}</style>
<polygon fill="#ffffff" stroke="transparent" points="-4,4 -4,-353.7056 685.7287,-353.7056 685.7287,4 -4,4"/>
<!-- deliverit_changelog -->
<g id="node1" class="node">
<title>deliverit_changelog</title><style>.edge>path:hover{stroke-width:8}</style>
<ellipse fill="#9d4343" stroke="#000000" cx="507.0542" cy="-99.6396" rx="43.2674" ry="21.4286"/>
<text text-anchor="middle" x="507.0542" y="-102.6396" font-family="Helvetica,sans-Serif" font-size="10.00" fill="#ffffff">deliverit.</text>
<text text-anchor="middle" x="507.0542" y="-91.6396" font-family="Helvetica,sans-Serif" font-size="10.00" fill="#ffffff">changelog</text>
</g>
<!-- deliverit_deliverit -->
<g id="node4" class="node">
<title>deliverit_deliverit</title><style>.edge>path:hover{stroke-width:8}</style>
<ellipse fill="#633535" stroke="#000000" cx="364.0542" cy="-21.2132" rx="37.4533" ry="21.4286"/>
<text text-anchor="middle" x="364.0542" y="-24.2132" font-family="Helvetica,sans-Serif" font-size="10.00" fill="#ffffff">deliverit.</text>
<text text-anchor="middle" x="364.0542" y="-13.2132" font-family="Helvetica,sans-Serif" font-size="10.00" fill="#ffffff">deliverit</text>
</g>
<!-- deliverit_changelog&#45;&gt;deliverit_deliverit -->
<g id="edge1" class="edge">
<title>deliverit_changelog&#45;&gt;deliverit_deliverit</title><style>.edge>path:hover{stroke-width:8}</style>
<path fill="none" stroke="#000000" d="M478.116,-83.7689C455.5378,-71.3861 424.0567,-54.1208 399.8863,-40.8648"/>
<polygon fill="#9d4343" stroke="#000000" points="401.4654,-37.7391 391.0144,-35.9992 398.0993,-43.8767 401.4654,-37.7391"/>
</g>
<!-- deliverit_config -->
<g id="node2" class="node">
<title>deliverit_config</title><style>.edge>path:hover{stroke-width:8}</style>
<ellipse fill="#db2f2f" stroke="#000000" cx="181.0542" cy="-178.066" rx="37.4533" ry="21.4286"/>
<text text-anchor="middle" x="181.0542" y="-181.066" font-family="Helvetica,sans-Serif" font-size="10.00" fill="#ffffff">deliverit.</text>
<text text-anchor="middle" x="181.0542" y="-170.066" font-family="Helvetica,sans-Serif" font-size="10.00" fill="#ffffff">config</text>
</g>
<!-- deliverit_config&#45;&gt;deliverit_deliverit -->
<g id="edge2" class="edge">
<title>deliverit_config&#45;&gt;deliverit_deliverit</title><style>.edge>path:hover{stroke-width:8}</style>
<path fill="none" stroke="#000000" d="M165.7712,-158.6036C150.8372,-137.0545 132.8054,-102.2238 151.0542,-78.4264 171.1247,-52.2535 260.6439,-35.3968 317.0503,-27.1705"/>
<polygon fill="#db2f2f" stroke="#000000" points="317.7637,-30.6045 327.173,-25.7346 316.7806,-23.6738 317.7637,-30.6045"/>
</g>
<!-- deliverit_git_remote -->
<g id="node6" class="node">
<title>deliverit_git_remote</title><style>.edge>path:hover{stroke-width:8}</style>
<ellipse fill="#9d4343" stroke="#000000" cx="364.0542" cy="-99.6396" rx="43.6818" ry="21.4286"/>
<text text-anchor="middle" x="364.0542" y="-102.6396" font-family="Helvetica,sans-Serif" font-size="10.00" fill="#ffffff">deliverit.</text>
<text text-anchor="middle" x="364.0542" y="-91.6396" font-family="Helvetica,sans-Serif" font-size="10.00" fill="#ffffff">git_remote</text>
</g>
<!-- deliverit_config&#45;&gt;deliverit_git_remote -->
<g id="edge3" class="edge">
<title>deliverit_config&#45;&gt;deliverit_git_remote</title><style>.edge>path:hover{stroke-width:8}</style>
<path fill="none" stroke="#000000" d="M211.273,-165.1155C241.302,-152.2463 287.6285,-132.3926 321.3981,-117.9203"/>
<polygon fill="#db2f2f" stroke="#000000" points="323.1909,-120.9599 331.0037,-113.8037 320.4335,-114.5259 323.1909,-120.9599"/>
</g>
<!-- deliverit_step -->
<g id="node8" class="node">
<title>deliverit_step</title><style>.edge>path:hover{stroke-width:8}</style>
<ellipse fill="#a44646" stroke="#000000" cx="62.0542" cy="-99.6396" rx="42.2678" ry="18"/>
<text text-anchor="middle" x="62.0542" y="-97.1396" font-family="Helvetica,sans-Serif" font-size="10.00" fill="#ffffff">deliverit.step</text>
</g>
<!-- deliverit_config&#45;&gt;deliverit_step -->
<g id="edge4" class="edge">
<title>deliverit_config&#45;&gt;deliverit_step</title><style>.edge>path:hover{stroke-width:8}</style>
<path fill="none" stroke="#000000" d="M156.3974,-161.816C138.1323,-149.7785 113.1036,-133.2834 93.4152,-120.3079"/>
<polygon fill="#db2f2f" stroke="#000000" points="95.3405,-117.3851 85.0647,-114.8046 91.4885,-123.2299 95.3405,-117.3851"/>
</g>
<!-- deliverit_version_declaration -->
<g id="node11" class="node">
<title>deliverit_version_declaration</title><style>.edge>path:hover{stroke-width:8}</style>
<ellipse fill="#a44646" stroke="#000000" cx="231.0542" cy="-99.6396" rx="71.3357" ry="21.4286"/>
<text text-anchor="middle" x="231.0542" y="-102.6396" font-family="Helvetica,sans-Serif" font-size="10.00" fill="#ffffff">deliverit.</text>
<text text-anchor="middle" x="231.0542" y="-91.6396" font-family="Helvetica,sans-Serif" font-size="10.00" fill="#ffffff">version_declaration</text>
</g>
<!-- deliverit_config&#45;&gt;deliverit_version_declaration -->
<g id="edge5" class="edge">
<title>deliverit_config&#45;&gt;deliverit_version_declaration</title><style>.edge>path:hover{stroke-width:8}</style>
<path fill="none" stroke="#000000" d="M193.9305,-157.8693C199.5131,-149.1128 206.1599,-138.687 212.2762,-129.0935"/>
<polygon fill="#db2f2f" stroke="#000000" points="215.2736,-130.9025 217.6983,-120.5888 209.3712,-127.1394 215.2736,-130.9025"/>
</g>
<!-- deliverit_context -->
<g id="node3" class="node">
<title>deliverit_context</title><style>.edge>path:hover{stroke-width:8}</style>
<ellipse fill="#d02424" stroke="#000000" cx="384.0542" cy="-178.066" rx="37.4533" ry="21.4286"/>
<text text-anchor="middle" x="384.0542" y="-181.066" font-family="Helvetica,sans-Serif" font-size="10.00" fill="#ffffff">deliverit.</text>
<text text-anchor="middle" x="384.0542" y="-170.066" font-family="Helvetica,sans-Serif" font-size="10.00" fill="#ffffff">context</text>
</g>
<!-- deliverit_context&#45;&gt;deliverit_changelog -->
<g id="edge6" class="edge">
<title>deliverit_context&#45;&gt;deliverit_changelog</title><style>.edge>path:hover{stroke-width:8}</style>
<path fill="none" stroke="#000000" d="M408.9451,-162.1953C427.045,-150.6545 451.7965,-134.8727 471.9097,-122.0482"/>
<polygon fill="#d02424" stroke="#000000" points="473.9474,-124.8999 480.4976,-116.5725 470.184,-118.9976 473.9474,-124.8999"/>
</g>
<!-- deliverit_context&#45;&gt;deliverit_deliverit -->
<g id="edge7" class="edge">
<title>deliverit_context&#45;&gt;deliverit_deliverit</title><style>.edge>path:hover{stroke-width:8}</style>
<path fill="none" stroke="#000000" d="M398.9128,-158.2966C405.8975,-147.7701 413.466,-134.2555 417.0542,-120.8528 421.9307,-102.6381 423.9361,-95.9819 417.0542,-78.4264 412.1802,-65.9929 403.1945,-54.6473 393.9888,-45.397"/>
<polygon fill="#d02424" stroke="#000000" points="396.3056,-42.7708 386.6333,-38.4469 391.4981,-47.8588 396.3056,-42.7708"/>
</g>
<!-- deliverit_context&#45;&gt;deliverit_git_remote -->
<g id="edge8" class="edge">
<title>deliverit_context&#45;&gt;deliverit_git_remote</title><style>.edge>path:hover{stroke-width:8}</style>
<path fill="none" stroke="#000000" d="M378.6946,-157.0492C376.6097,-148.8736 374.179,-139.342 371.9041,-130.4215"/>
<polygon fill="#d02424" stroke="#000000" points="375.2913,-129.5394 369.4287,-120.7145 368.5084,-131.2692 375.2913,-129.5394"/>
</g>
<!-- deliverit_context&#45;&gt;deliverit_version_declaration -->
<g id="edge9" class="edge">
<title>deliverit_context&#45;&gt;deliverit_version_declaration</title><style>.edge>path:hover{stroke-width:8}</style>
<path fill="none" stroke="#000000" d="M355.9917,-163.6814C333.71,-152.26 302.115,-136.0647 276.2732,-122.8184"/>
<polygon fill="#d02424" stroke="#000000" points="277.5363,-119.5329 267.0407,-118.086 274.3432,-125.7622 277.5363,-119.5329"/>
</g>
<!-- deliverit_git -->
<g id="node5" class="node">
<title>deliverit_git</title><style>.edge>path:hover{stroke-width:8}</style>
<ellipse fill="#b65353" stroke="#000000" cx="644.0542" cy="-99.6396" rx="37.8497" ry="18"/>
<text text-anchor="middle" x="644.0542" y="-97.1396" font-family="Helvetica,sans-Serif" font-size="10.00" fill="#ffffff">deliverit.git</text>
</g>
<!-- deliverit_git&#45;&gt;deliverit_deliverit -->
<g id="edge10" class="edge">
<title>deliverit_git&#45;&gt;deliverit_deliverit</title><style>.edge>path:hover{stroke-width:8}</style>
<path fill="none" stroke="#000000" d="M616.2582,-87.4535C608.5056,-84.2876 600.0226,-81.037 592.0542,-78.4264 529.8587,-58.05 456.1118,-40.7505 409.6942,-30.6693"/>
<polygon fill="#b65353" stroke="#000000" points="410.1607,-27.1897 399.6482,-28.5077 408.6882,-34.033 410.1607,-27.1897"/>
</g>
<!-- deliverit_git_remote&#45;&gt;deliverit_deliverit -->
<g id="edge11" class="edge">
<title>deliverit_git_remote&#45;&gt;deliverit_deliverit</title><style>.edge>path:hover{stroke-width:8}</style>
<path fill="none" stroke="#000000" d="M364.0542,-78.2092C364.0542,-70.342 364.0542,-61.2631 364.0542,-52.6967"/>
<polygon fill="#9d4343" stroke="#000000" points="367.5543,-52.6176 364.0542,-42.6177 360.5543,-52.6177 367.5543,-52.6176"/>
</g>
<!-- deliverit_manifest_file -->
<g id="node7" class="node">
<title>deliverit_manifest_file</title><style>.edge>path:hover{stroke-width:8}</style>
<ellipse fill="#ac4949" stroke="#000000" cx="621.0542" cy="-178.066" rx="50.8235" ry="21.4286"/>
<text text-anchor="middle" x="621.0542" y="-181.066" font-family="Helvetica,sans-Serif" font-size="10.00" fill="#ffffff">deliverit.</text>
<text text-anchor="middle" x="621.0542" y="-170.066" font-family="Helvetica,sans-Serif" font-size="10.00" fill="#ffffff">manifest_file</text>
</g>
<!-- deliverit_manifest_file&#45;&gt;deliverit_deliverit -->
<g id="edge12" class="edge">
<title>deliverit_manifest_file&#45;&gt;deliverit_deliverit</title><style>.edge>path:hover{stroke-width:8}</style>
<path fill="none" stroke="#000000" d="M611.4784,-157.2012C603.5508,-140.8672 591.4483,-117.9307 578.0542,-99.6396"/>
</g>
<!-- deliverit_step&#45;&gt;deliverit_deliverit -->
<g id="edge13" class="edge">
<title>deliverit_step&#45;&gt;deliverit_deliverit</title><style>.edge>path:hover{stroke-width:8}</style>
<path fill="none" stroke="#000000" d="M92.9012,-87.1108C101.0098,-84.0505 109.7988,-80.9377 118.0542,-78.4264 186.9315,-57.4738 268.649,-39.8632 318.4041,-29.9265"/>
<polygon fill="#a44646" stroke="#000000" points="319.0879,-33.3592 328.2177,-27.9835 317.7283,-26.4925 319.0879,-33.3592"/>
</g>
<!-- deliverit_ui -->
<g id="node9" class="node">
<title>deliverit_ui</title><style>.edge>path:hover{stroke-width:8}</style>
<ellipse fill="#e72222" stroke="#000000" cx="351.0542" cy="-331.7056" rx="35.8171" ry="18"/>
<text text-anchor="middle" x="351.0542" y="-329.2056" font-family="Helvetica,sans-Serif" font-size="10.00" fill="#ffffff">deliverit.ui</text>
</g>
<!-- deliverit_ui&#45;&gt;deliverit_changelog -->
<g id="edge14" class="edge">
<title>deliverit_ui&#45;&gt;deliverit_changelog</title><style>.edge>path:hover{stroke-width:8}</style>
<path fill="none" stroke="#000000" d="M319.0542,-256.4924C295.1479,-206.404 387.405,-234.7955 430.0542,-199.2792 454.1617,-179.2037 475.4368,-150.3267 489.48,-128.8235"/>
<polygon fill="#e72222" stroke="#000000" points="492.6138,-130.419 495.043,-120.1064 486.7129,-126.6533 492.6138,-130.419"/>
</g>
<!-- deliverit_ui&#45;&gt;deliverit_deliverit -->
<g id="edge15" class="edge">
<title>deliverit_ui&#45;&gt;deliverit_deliverit</title><style>.edge>path:hover{stroke-width:8}</style>
<path fill="none" stroke="#000000" d="M343.9784,-313.8857C337.7588,-298.5235 328.2839,-275.8305 319.0542,-256.4924"/>
<path fill="none" stroke="#000000" d="M319.0542,-256.4924C267.6147,-148.7165 151.5514,-257.1351 62.0542,-178.066"/>
<path fill="none" stroke="#000000" d="M62.0542,-178.066C24.7721,-145.1279 -21.1864,-116.3133 11.0542,-78.4264 30.6676,-55.3782 225.1888,-34.2489 316.7984,-25.4863"/>
<polygon fill="#e72222" stroke="#000000" points="317.2899,-28.9555 326.9157,-24.5288 316.6304,-21.9866 317.2899,-28.9555"/>
</g>
<!-- deliverit_ui&#45;&gt;deliverit_git_remote -->
<g id="edge16" class="edge">
<title>deliverit_ui&#45;&gt;deliverit_git_remote</title><style>.edge>path:hover{stroke-width:8}</style>
<path fill="none" stroke="#000000" d="M319.0542,-256.4924C298.6135,-214.0264 323.7424,-160.5148 343.8469,-128.2465"/>
<polygon fill="#e72222" stroke="#000000" points="346.8583,-130.0349 349.3422,-119.7353 340.9776,-126.2379 346.8583,-130.0349"/>
</g>
<!-- deliverit_ui&#45;&gt;deliverit_step -->
<g id="edge17" class="edge">
<title>deliverit_ui&#45;&gt;deliverit_step</title><style>.edge>path:hover{stroke-width:8}</style>
<path fill="none" stroke="#000000" d="M62.0542,-178.066C48.3651,-165.972 49.0235,-145.0157 52.7512,-127.807"/>
<polygon fill="#e72222" stroke="#000000" points="56.2525,-128.247 55.3681,-117.6892 49.4755,-126.4942 56.2525,-128.247"/>
</g>
<!-- deliverit_version -->
<g id="node10" class="node">
<title>deliverit_version</title><style>.edge>path:hover{stroke-width:8}</style>
<ellipse fill="#d02424" stroke="#000000" cx="455.0542" cy="-256.4924" rx="37.4533" ry="21.4286"/>
<text text-anchor="middle" x="455.0542" y="-259.4924" font-family="Helvetica,sans-Serif" font-size="10.00" fill="#ffffff">deliverit.</text>
<text text-anchor="middle" x="455.0542" y="-248.4924" font-family="Helvetica,sans-Serif" font-size="10.00" fill="#ffffff">version</text>
</g>
<!-- deliverit_ui&#45;&gt;deliverit_version -->
<g id="edge18" class="edge">
<title>deliverit_ui&#45;&gt;deliverit_version</title><style>.edge>path:hover{stroke-width:8}</style>
<path fill="none" stroke="#000000" d="M371.6013,-316.8459C386.3209,-306.2006 406.4266,-291.6601 423.215,-279.5187"/>
<polygon fill="#e72222" stroke="#000000" points="425.5938,-282.1178 431.6457,-273.4215 421.4916,-276.4456 425.5938,-282.1178"/>
</g>
<!-- deliverit_version&#45;&gt;deliverit_changelog -->
<g id="edge19" class="edge">
<title>deliverit_version&#45;&gt;deliverit_changelog</title><style>.edge>path:hover{stroke-width:8}</style>
<path fill="none" stroke="#000000" d="M481.4443,-241.3309C502.213,-227.7426 529.6501,-205.7102 542.0542,-178.066"/>
<path fill="none" stroke="#000000" d="M542.0542,-178.066C549.6059,-161.2361 541.684,-142.3562 531.4809,-127.3385"/>
<polygon fill="#d02424" stroke="#000000" points="534.0675,-124.9496 525.3095,-118.9873 528.4378,-129.1098 534.0675,-124.9496"/>
</g>
<!-- deliverit_version&#45;&gt;deliverit_context -->
<g id="edge20" class="edge">
<title>deliverit_version&#45;&gt;deliverit_context</title><style>.edge>path:hover{stroke-width:8}</style>
<path fill="none" stroke="#000000" d="M437.8671,-237.5076C428.9505,-227.6583 417.9112,-215.4643 408.1564,-204.6892"/>
<polygon fill="#d02424" stroke="#000000" points="410.6352,-202.2122 401.3292,-197.1479 405.4459,-206.9102 410.6352,-202.2122"/>
</g>
<!-- deliverit_version&#45;&gt;deliverit_deliverit -->
<g id="edge21" class="edge">
<title>deliverit_version&#45;&gt;deliverit_deliverit</title><style>.edge>path:hover{stroke-width:8}</style>
<path fill="none" stroke="#000000" d="M542.0542,-178.066C557.7553,-143.0742 600.7134,-130.5833 578.0542,-99.6396"/>
<path fill="none" stroke="#000000" d="M578.0542,-99.6396C570.5764,-89.4278 569.7584,-85.1805 559.0542,-78.4264 513.2552,-49.5283 452.275,-34.7157 410.7827,-27.4866"/>
<polygon fill="#d02424" stroke="#000000" points="411.113,-23.9936 400.6748,-25.8082 409.9663,-30.8991 411.113,-23.9936"/>
</g>
<!-- deliverit_version&#45;&gt;deliverit_manifest_file -->
<g id="edge22" class="edge">
<title>deliverit_version&#45;&gt;deliverit_manifest_file</title><style>.edge>path:hover{stroke-width:8}</style>
<path fill="none" stroke="#000000" d="M483.9692,-242.8316C509.9533,-230.5555 548.4633,-212.3615 578.0565,-198.3802"/>
<polygon fill="#d02424" stroke="#000000" points="579.7776,-201.4381 587.3241,-194.0017 576.7873,-195.1089 579.7776,-201.4381"/>
</g>
<!-- deliverit_version_declaration&#45;&gt;deliverit_deliverit -->
<g id="edge23" class="edge">
<title>deliverit_version_declaration&#45;&gt;deliverit_deliverit</title><style>.edge>path:hover{stroke-width:8}</style>
<path fill="none" stroke="#000000" d="M263.2498,-80.6548C283.2064,-68.8869 308.8389,-53.7722 329.262,-41.7292"/>
<polygon fill="#a44646" stroke="#000000" points="331.1151,-44.6997 337.9513,-36.6054 327.5595,-38.67 331.1151,-44.6997"/>
</g>
</g>
</svg>
